<?xml version="1.0" encoding="UTF-8" standalone="no"?>
<!DOCTYPE svg PUBLIC "-//W3C//DTD SVG 1.1//EN" "http://www.w3.org/Graphics/SVG/1.1/DTD/svg11.dtd">
<svg version="1.1" xmlns="http://www.w3.org/2000/svg" xmlns:xlink="http://www.w3.org/1999/xlink" preserveAspectRatio="xMidYMid meet" viewBox="0 0 640 640" width="640" height="640"><defs><path d="M436.66 278.99C384.08 278.99 341.39 233.73 341.39 177.98C341.39 122.24 384.08 76.98 436.66 76.98C489.25 76.98 531.94 122.24 531.94 177.98C531.94 233.73 489.25 278.99 436.66 278.99Z" id="b2iwfpBg35"></path><path d="M213.36 269.22C160.78 269.22 118.08 223.96 118.08 168.21C118.08 112.46 160.78 67.2 213.36 67.2C265.94 67.2 308.64 112.46 308.64 168.21C308.64 223.96 265.94 269.22 213.36 269.22Z" id="dKGksMrpI"></path><path d="M322.72 229.8C255.18 229.8 200.35 181 200.35 120.89C200.35 60.78 255.18 11.98 322.72 11.98C390.25 11.98 445.07 60.78 445.07 120.89C445.07 181 390.25 229.8 322.72 229.8Z" id="bhL9w6tNa"></path><path d="M516.09 339.49C455.5 339.49 406.31 294.23 406.31 238.48C406.31 182.73 455.5 137.47 516.09 137.47C576.69 137.47 625.88 182.73 625.88 238.48C625.88 294.23 576.69 339.49 516.09 339.49Z" id="a1eT7ZU7tc"></path><path d="M318.86 352.18C226.37 349.27 153.01 301.67 155.14 245.95C157.26 190.24 234.08 147.38 326.57 150.3C419.06 153.21 492.42 200.81 490.28 256.52C488.16 312.24 411.34 355.1 318.86 352.18Z" id="eoXNeZ79X"></path><path d="M118.08 339.49C57.49 339.49 8.3 294.23 8.3 238.48C8.3 182.73 57.49 137.47 118.08 137.47C178.68 137.47 227.88 182.73 227.88 238.48C227.88 294.23 178.68 339.49 118.08 339.49Z" id="a4U3okjZVc"></path></defs><g><g><g><use xlink:href="#b2iwfpBg35" opacity="1" fill="#f8f8f8" fill-opacity="1"></use><g><use xlink:href="#b2iwfpBg35" opacity="1" fill-opacity="0" stroke="#000000" stroke-width="1" stroke-opacity="0"></use></g></g><g><use xlink:href="#dKGksMrpI" opacity="1" fill="#f8f8f8" fill-opacity="1"></use><g><use xlink:href="#dKGksMrpI" opacity="1" fill-opacity="0" stroke="#000000" stroke-width="1" stroke-opacity="0"></use></g></g><g><use xlink:href="#bhL9w6tNa" opacity="1" fill="#f8f8f8" fill-opacity="1"></use><g><use xlink:href="#bhL9w6tNa" opacity="1" fill-opacity="0" stroke="#000000" stroke-width="1" stroke-opacity="0"></use></g></g><g><use xlink:href="#a1eT7ZU7tc" opacity="1" fill="#f8f8f8" fill-opacity="1"></use><g><use xlink:href="#a1eT7ZU7tc" opacity="1" fill-opacity="0" stroke="#000000" stroke-width="1" stroke-opacity="0"></use></g></g><g><use xlink:href="#eoXNeZ79X" opacity="1" fill="#f8f8f8" fill-opacity="1"></use><g><use xlink:href="#eoXNeZ79X" opacity="1" fill-opacity="0" stroke="#000000" stroke-width="1" stroke-opacity="0"></use></g></g><g><use xlink:href="#a4U3okjZVc" opacity="1" fill="#f8f8f8" fill-opacity="1"></use><g><use xlink:href="#a4U3okjZVc" opacity="1" fill-opacity="0" stroke="#000000" stroke-width="1" stroke-opacity="0"></use></g></g></g></g></svg>