<?xml version="1.0" encoding="UTF-8" standalone="no"?>
<!DOCTYPE svg PUBLIC "-//W3C//DTD SVG 1.1//EN" "http://www.w3.org/Graphics/SVG/1.1/DTD/svg11.dtd">
<svg version="1.1" xmlns="http://www.w3.org/2000/svg" xmlns:xlink="http://www.w3.org/1999/xlink" preserveAspectRatio="xMidYMid meet" viewBox="0 0 640 640" width="640" height="640"><defs><path d="M549.41 525.47L707.91 625.77L390.89 625.77L73.89 625.77L234.78 525.91C312.06 476.04 360.36 444.87 379.68 432.4C386.52 427.99 395.29 427.95 402.17 432.3C421.8 444.72 470.88 475.78 549.41 525.47Z" id="d1Py4QZDlT"></path><path d="M380.98 433.31L219.46 532.69L258.87 554.25L392.08 429.58L380.98 433.31Z" id="c5Vm1AymhH"></path><path d="M96.19 530.82L219.46 668.94L-27.09 668.94L-273.62 668.94L-148.5 531.42C-100.79 476.92 -70.98 442.85 -59.05 429.22C-42.07 409.82 -11.94 409.68 5.23 428.91C17.35 442.5 47.68 476.47 96.19 530.82Z" id="b4uA772pxC"></path></defs><g><g><g><use xlink:href="#d1Py4QZDlT" opacity="1" fill="#6ea38a" fill-opacity="1"></use><g><use xlink:href="#d1Py4QZDlT" opacity="1" fill-opacity="0" stroke="#699982" stroke-width="2" stroke-opacity="1"></use></g></g><g><use xlink:href="#c5Vm1AymhH" opacity="1" fill="#699982" fill-opacity="1"></use><g><use xlink:href="#c5Vm1AymhH" opacity="1" fill-opacity="0" stroke="#699982" stroke-width="2" stroke-opacity="1"></use></g></g><g><use xlink:href="#b4uA772pxC" opacity="1" fill="#6ea38a" fill-opacity="1"></use><g><use xlink:href="#b4uA772pxC" opacity="1" fill-opacity="0" stroke="#699982" stroke-width="2" stroke-opacity="1"></use></g></g></g></g></svg>