<?xml version="1.0" encoding="UTF-8" standalone="no"?>
<!DOCTYPE svg PUBLIC "-//W3C//DTD SVG 1.1//EN" "http://www.w3.org/Graphics/SVG/1.1/DTD/svg11.dtd">
<svg version="1.1" xmlns="http://www.w3.org/2000/svg" xmlns:xlink="http://www.w3.org/1999/xlink" preserveAspectRatio="xMidYMid meet" viewBox="0 0 640 640" width="640" height="640"><defs><path d="M441.67 539.53L632.25 648.18L251.07 648.18L-130.09 648.18L63.36 540C152.94 487.93 208.92 455.38 231.31 442.36C243.55 435.25 258.64 435.19 270.93 442.2C293.69 455.17 350.61 487.62 441.67 539.53Z" id="a1R1olGhLe"></path><path d="M687.16 520.52L862.56 648.18L511.74 648.18L160.94 648.18L338.98 521.08C412.14 466.79 457.86 432.85 476.15 419.28C497.33 403.56 526.26 403.43 547.58 418.95C566.19 432.49 612.72 466.35 687.16 520.52Z" id="f1auwjxOY2"></path><path d="M-46.11 600.27L-46.11 660.79L20.3 658.42L238.32 439.79L-46.11 600.27Z" id="euuFy8PxN"></path><path d="M482.66 415.86L458.69 432.46L169.6 643.95L300.52 646.79L500.22 410.23L482.66 415.86Z" id="allTA6Hp9"></path></defs><g><g><g><use xlink:href="#a1R1olGhLe" opacity="1" fill="#345e52" fill-opacity="1"></use><g><use xlink:href="#a1R1olGhLe" opacity="1" fill-opacity="0" stroke="#2e5147" stroke-width="2" stroke-opacity="1"></use></g></g><g><use xlink:href="#f1auwjxOY2" opacity="1" fill="#345e52" fill-opacity="1"></use><g><use xlink:href="#f1auwjxOY2" opacity="1" fill-opacity="0" stroke="#2e5147" stroke-width="2" stroke-opacity="1"></use></g></g><g><use xlink:href="#euuFy8PxN" opacity="1" fill="#2e5147" fill-opacity="1"></use><g><use xlink:href="#euuFy8PxN" opacity="1" fill-opacity="0" stroke="#2e5147" stroke-width="2" stroke-opacity="1"></use></g></g><g><use xlink:href="#allTA6Hp9" opacity="1" fill="#2e5147" fill-opacity="1"></use><g><use xlink:href="#allTA6Hp9" opacity="1" fill-opacity="0" stroke="#2e5147" stroke-width="2" stroke-opacity="1"></use></g></g></g></g></svg>