<?xml version="1.0" encoding="UTF-8" standalone="no"?>
<!DOCTYPE svg PUBLIC "-//W3C//DTD SVG 1.1//EN" "http://www.w3.org/Graphics/SVG/1.1/DTD/svg11.dtd">
<svg version="1.1" xmlns="http://www.w3.org/2000/svg" xmlns:xlink="http://www.w3.org/1999/xlink" preserveAspectRatio="xMidYMid meet" viewBox="0 0 640 640" width="640" height="640"><defs><path d="M64.2 495.29L68.88 492.17L73.46 489.11L77.95 486.11L82.35 483.17L86.65 480.29L90.86 477.48L94.97 474.73L98.99 472.05L102.92 469.42L106.75 466.86L110.49 464.36L114.14 461.93L117.69 459.56L121.15 457.25L124.51 455L127.78 452.81L130.95 450.69L134.04 448.63L137.02 446.64L139.92 444.7L142.72 442.83L145.43 441.02L148.04 439.28L150.56 437.6L152.98 435.98L155.31 434.42L157.55 432.92L159.69 431.49L161.74 430.12L163.7 428.82L165.56 427.57L167.33 426.39L169 425.27L170.58 424.22L172.07 423.22L173.46 422.29L174.76 421.43L174.96 421.29L175.16 421.17L175.37 421.05L175.58 420.94L175.8 420.84L176.01 420.74L176.23 420.65L176.45 420.56L176.67 420.49L176.89 420.42L177.12 420.35L177.34 420.29L177.57 420.24L177.8 420.2L178.03 420.16L178.26 420.13L178.49 420.11L178.72 420.09L178.95 420.08L179.18 420.07L179.41 420.07L179.64 420.08L179.88 420.1L180.11 420.12L180.34 420.15L180.57 420.19L180.8 420.23L181.02 420.28L181.25 420.33L181.47 420.4L181.7 420.46L181.92 420.54L182.14 420.62L182.36 420.71L182.57 420.81L182.79 420.91L183 421.02L183.21 421.13L183.42 421.26L183.62 421.39L184.94 422.25L186.35 423.18L187.86 424.17L189.47 425.22L191.17 426.33L192.96 427.51L194.85 428.75L196.84 430.05L198.92 431.41L201.1 432.84L203.37 434.33L205.74 435.88L208.2 437.49L210.76 439.17L213.41 440.91L216.16 442.71L219 444.57L221.94 446.5L224.98 448.48L228.11 450.54L231.33 452.65L234.66 454.82L238.07 457.06L241.58 459.36L245.19 461.73L248.89 464.15L252.69 466.64L256.58 469.19L260.57 471.8L264.65 474.48L268.83 477.22L273.11 480.02L277.48 482.88L281.94 485.81L286.5 488.79L291.16 491.84L295.91 494.96L300.76 498.13L305.7 501.37L310.73 504.67L442.28 590.87L179.17 590.87L-83.92 590.87L49.61 505.04L54.57 501.73L59.43 498.48L59.43 498.48L64.2 495.29Z" id="b1f0ook9Ii"></path><path d="M703.57 494.67L833.45 569.72L573.68 569.72L313.92 569.72L445.76 495C512.97 455.39 554.98 430.64 571.78 420.74C572.96 420.05 574.41 420.04 575.59 420.73C592.66 430.59 635.32 455.23 703.57 494.67Z" id="b2mxlK7aCd"></path><path d="M589.42 486.55L719.3 561.59L459.53 561.59L199.77 561.59L331.6 486.87C396.64 448.55 437.29 424.6 453.55 415.02C457.24 412.84 461.82 412.82 465.53 414.96C482.05 424.51 523.34 448.37 589.42 486.55Z" id="aAhkXyfQZ"></path><path d="M442.09 493.6L563.22 573.51L317.38 557.86L71.55 542.2L198.09 478.38C259.35 446.12 297.65 425.96 312.96 417.89C317.88 415.3 323.82 415.59 328.47 418.66C343.62 428.65 381.49 453.63 442.09 493.6Z" id="aaRWzU5pI"></path><path d="M190.9 526.16L333.52 634.95L48.27 634.95L-236.95 634.95L-92.19 526.63C-20.46 470.84 24.37 435.97 42.3 422.02C45.82 419.28 50.75 419.26 54.3 421.96C72.51 435.86 118.04 470.59 190.9 526.16Z" id="d4YQ5YZgf"></path></defs><g><g><g><use xlink:href="#b1f0ook9Ii" opacity="1" fill="#d8edd4" fill-opacity="1"></use><g><use xlink:href="#b1f0ook9Ii" opacity="1" fill-opacity="0" stroke="#d0e8cc" stroke-width="2" stroke-opacity="1"></use></g></g><g><use xlink:href="#b2mxlK7aCd" opacity="1" fill="#d8edd4" fill-opacity="1"></use><g><use xlink:href="#b2mxlK7aCd" opacity="1" fill-opacity="0" stroke="#d0e8cc" stroke-width="2" stroke-opacity="1"></use></g></g><g><use xlink:href="#aAhkXyfQZ" opacity="1" fill="#d8edd4" fill-opacity="1"></use><g><use xlink:href="#aAhkXyfQZ" opacity="1" fill-opacity="0" stroke="#d0e8cc" stroke-width="2" stroke-opacity="1"></use></g></g><g><use xlink:href="#aaRWzU5pI" opacity="1" fill="#d8edd4" fill-opacity="1"></use><g><use xlink:href="#aaRWzU5pI" opacity="1" fill-opacity="0" stroke="#d0e8cc" stroke-width="2" stroke-opacity="1"></use></g></g><g><use xlink:href="#d4YQ5YZgf" opacity="1" fill="#d8edd4" fill-opacity="1"></use><g><use xlink:href="#d4YQ5YZgf" opacity="1" fill-opacity="0" stroke="#d0e8cc" stroke-width="2" stroke-opacity="1"></use></g></g></g></g></svg>