<?xml version="1.0" encoding="UTF-8" standalone="no"?>
<!DOCTYPE svg PUBLIC "-//W3C//DTD SVG 1.1//EN" "http://www.w3.org/Graphics/SVG/1.1/DTD/svg11.dtd">
<svg version="1.1" xmlns="http://www.w3.org/2000/svg" xmlns:xlink="http://www.w3.org/1999/xlink" preserveAspectRatio="xMidYMid meet" viewBox="0 0 640 640" width="640" height="640"><defs><path d="M761.66 541.54L913.62 668.94L609.69 668.94L305.77 668.94L460.02 542.1C531.74 480.78 576.56 442.46 594.49 427.14C603.26 419.64 616.17 419.58 625.01 426.99C643.23 442.26 688.78 480.45 761.66 541.54Z" id="d2fsPuqnow"></path><path d="M305.68 547.91L486.56 674.79L124.8 674.79L-236.95 674.79L-53.36 548.46C33.89 486.06 88.42 447.06 110.23 431.45C118.96 425.21 130.67 425.16 139.46 431.32C161.62 446.87 217.03 485.73 305.68 547.91Z" id="a209l64CMg"></path><path d="M92.05 444.32L20.89 500.43L45.74 512.63L118.03 427.96L92.05 444.32Z" id="e1PsXDcu4u"></path><path d="M577.96 442.05L512.73 505.05L535.51 518.74L601.77 423.67L577.96 442.05Z" id="amplrWbBf"></path></defs><g><g><g><use xlink:href="#d2fsPuqnow" opacity="1" fill="#a0c399" fill-opacity="1"></use><g><use xlink:href="#d2fsPuqnow" opacity="1" fill-opacity="0" stroke="#92b58b" stroke-width="2" stroke-opacity="1"></use></g></g><g><use xlink:href="#a209l64CMg" opacity="1" fill="#a0c399" fill-opacity="1"></use><g><use xlink:href="#a209l64CMg" opacity="1" fill-opacity="0" stroke="#92b58b" stroke-width="2" stroke-opacity="1"></use></g></g><g><use xlink:href="#e1PsXDcu4u" opacity="1" fill="#92b58b" fill-opacity="1"></use><g><use xlink:href="#e1PsXDcu4u" opacity="1" fill-opacity="0" stroke="#92b58b" stroke-width="2" stroke-opacity="1"></use></g></g><g><use xlink:href="#amplrWbBf" opacity="1" fill="#92b58b" fill-opacity="1"></use><g><use xlink:href="#amplrWbBf" opacity="1" fill-opacity="0" stroke="#92b58b" stroke-width="2" stroke-opacity="1"></use></g></g></g></g></svg>