<?xml version="1.0" encoding="UTF-8" standalone="no"?>
<!DOCTYPE svg PUBLIC "-//W3C//DTD SVG 1.1//EN" "http://www.w3.org/Graphics/SVG/1.1/DTD/svg11.dtd">
<svg version="1.1" xmlns="http://www.w3.org/2000/svg" xmlns:xlink="http://www.w3.org/1999/xlink" preserveAspectRatio="xMidYMid meet" viewBox="0 0 640 640" width="640" height="640"><defs><path d="M64.2 495.29L68.88 492.17L73.46 489.11L77.95 486.11L82.35 483.17L86.65 480.29L90.86 477.48L94.97 474.73L98.99 472.05L102.92 469.42L106.75 466.86L110.49 464.36L114.14 461.93L117.69 459.56L121.15 457.25L124.51 455L127.78 452.81L130.95 450.69L134.04 448.63L137.02 446.64L139.92 444.7L142.72 442.83L145.43 441.02L148.04 439.28L150.56 437.6L152.98 435.98L155.31 434.42L157.55 432.92L159.69 431.49L161.74 430.12L163.7 428.82L165.56 427.57L167.33 426.39L169 425.27L170.58 424.22L172.07 423.22L173.46 422.29L174.76 421.43L174.96 421.29L175.16 421.17L175.37 421.05L175.58 420.94L175.8 420.84L176.01 420.74L176.23 420.65L176.45 420.56L176.67 420.49L176.89 420.42L177.12 420.35L177.34 420.29L177.57 420.24L177.8 420.2L178.03 420.16L178.26 420.13L178.49 420.11L178.72 420.09L178.95 420.08L179.18 420.07L179.41 420.07L179.64 420.08L179.88 420.1L180.11 420.12L180.34 420.15L180.57 420.19L180.8 420.23L181.02 420.28L181.25 420.33L181.47 420.4L181.7 420.46L181.92 420.54L182.14 420.62L182.36 420.71L182.57 420.81L182.79 420.91L183 421.02L183.21 421.13L183.42 421.26L183.62 421.39L184.94 422.25L186.35 423.18L187.86 424.17L189.47 425.22L191.17 426.33L192.96 427.51L194.85 428.75L196.84 430.05L198.92 431.41L201.1 432.84L203.37 434.33L205.74 435.88L208.2 437.49L210.76 439.17L213.41 440.91L216.16 442.71L219 444.57L221.94 446.5L224.98 448.48L228.11 450.54L231.33 452.65L234.66 454.82L238.07 457.06L241.58 459.36L245.19 461.73L248.89 464.15L252.69 466.64L256.58 469.19L260.57 471.8L264.65 474.48L268.83 477.22L273.11 480.02L277.48 482.88L281.94 485.81L286.5 488.79L291.16 491.84L295.91 494.96L300.76 498.13L305.7 501.37L310.73 504.67L442.28 590.87L179.17 590.87L-83.92 590.87L49.61 505.04L54.57 501.73L59.43 498.48L59.43 498.48L64.2 495.29Z" id="baWpH5Hme"></path><path d="M703.57 494.67L833.45 569.72L573.68 569.72L313.92 569.72L445.76 495C512.97 455.39 554.98 430.64 571.78 420.74C572.96 420.05 574.41 420.04 575.59 420.73C592.66 430.59 635.32 455.23 703.57 494.67Z" id="a52b2SsgVF"></path><path d="M589.42 486.55L719.3 561.59L459.53 561.59L199.77 561.59L331.6 486.87C396.64 448.55 437.29 424.6 453.55 415.02C457.24 412.84 461.82 412.82 465.53 414.96C482.05 424.51 523.34 448.37 589.42 486.55Z" id="b2mhMHOSHC"></path><path d="M442.09 493.6L563.22 573.51L317.38 557.86L71.55 542.2L198.09 478.38C259.35 446.12 297.65 425.96 312.96 417.89C317.88 415.3 323.82 415.59 328.47 418.66C343.62 428.65 381.49 453.63 442.09 493.6Z" id="a4MLPCtdF7"></path><path d="M190.9 526.16L333.52 634.95L48.27 634.95L-236.95 634.95L-92.19 526.63C-20.46 470.84 24.37 435.97 42.3 422.02C45.82 419.28 50.75 419.26 54.3 421.96C72.51 435.86 118.04 470.59 190.9 526.16Z" id="axuLCHtcg"></path><path d="M761.66 541.54L913.62 668.94L609.69 668.94L305.77 668.94L460.02 542.1C531.74 480.78 576.56 442.46 594.49 427.14C603.26 419.64 616.17 419.58 625.01 426.99C643.23 442.26 688.78 480.45 761.66 541.54Z" id="c25tUTPh32"></path><path d="M305.68 547.91L486.56 674.79L124.8 674.79L-236.95 674.79L-53.36 548.46C33.89 486.06 88.42 447.06 110.23 431.45C118.96 425.21 130.67 425.16 139.46 431.32C161.62 446.87 217.03 485.73 305.68 547.91Z" id="cp5GLsOUg"></path><path d="M92.05 444.32L20.89 500.43L45.74 512.63L118.03 427.96L92.05 444.32Z" id="a3cRQ0RuH"></path><path d="M549.41 525.47L707.91 625.77L390.89 625.77L73.89 625.77L234.78 525.91C312.06 476.04 360.36 444.87 379.68 432.4C386.52 427.99 395.29 427.95 402.17 432.3C421.8 444.72 470.88 475.78 549.41 525.47Z" id="b2nKNvg3wo"></path><path d="M380.98 433.31L219.46 532.69L258.87 554.25L392.08 429.58L380.98 433.31Z" id="ct7HQlzds"></path><path d="M96.19 530.82L219.46 668.94L-27.09 668.94L-273.62 668.94L-148.5 531.42C-100.79 476.92 -70.98 442.85 -59.05 429.22C-42.07 409.82 -11.94 409.68 5.23 428.91C17.35 442.5 47.68 476.47 96.19 530.82Z" id="ds9jfkFHU"></path><path d="M577.96 442.05L512.73 505.05L535.51 518.74L601.77 423.67L577.96 442.05Z" id="j1O3xVZ8PI"></path><path d="M359.77 110.33C359.77 138.46 337.15 161.31 309.28 161.31C281.41 161.31 258.79 138.46 258.79 110.33C258.79 82.19 281.41 59.35 309.28 59.35C337.15 59.35 359.77 82.19 359.77 110.33Z" id="b1g5RTnkg"></path><path d="M441.67 539.53L632.25 648.18L251.07 648.18L-130.09 648.18L63.36 540C152.94 487.93 208.92 455.38 231.31 442.36C243.55 435.25 258.64 435.19 270.93 442.2C293.69 455.17 350.61 487.62 441.67 539.53Z" id="aFyW56E9p"></path><path d="M687.16 520.52L862.56 648.18L511.74 648.18L160.94 648.18L338.98 521.08C412.14 466.79 457.86 432.85 476.15 419.28C497.33 403.56 526.26 403.43 547.58 418.95C566.19 432.49 612.72 466.35 687.16 520.52Z" id="bloy5AlPJ"></path><path d="M-46.11 600.27L-46.11 660.79L20.3 658.42L238.32 439.79L-46.11 600.27Z" id="cdb18ycR"></path><path d="M482.66 415.86L458.69 432.46L169.6 643.95L300.52 646.79L500.22 410.23L482.66 415.86Z" id="eXbXse6oi"></path></defs><g><g><g><use xlink:href="#baWpH5Hme" opacity="1" fill="#d8edd4" fill-opacity="1"></use><g><use xlink:href="#baWpH5Hme" opacity="1" fill-opacity="0" stroke="#d0e8cc" stroke-width="2" stroke-opacity="1"></use></g></g><g><use xlink:href="#a52b2SsgVF" opacity="1" fill="#d8edd4" fill-opacity="1"></use><g><use xlink:href="#a52b2SsgVF" opacity="1" fill-opacity="0" stroke="#d0e8cc" stroke-width="2" stroke-opacity="1"></use></g></g><g><use xlink:href="#b2mhMHOSHC" opacity="1" fill="#d8edd4" fill-opacity="1"></use><g><use xlink:href="#b2mhMHOSHC" opacity="1" fill-opacity="0" stroke="#d0e8cc" stroke-width="2" stroke-opacity="1"></use></g></g><g><use xlink:href="#a4MLPCtdF7" opacity="1" fill="#d8edd4" fill-opacity="1"></use><g><use xlink:href="#a4MLPCtdF7" opacity="1" fill-opacity="0" stroke="#d0e8cc" stroke-width="2" stroke-opacity="1"></use></g></g><g><use xlink:href="#axuLCHtcg" opacity="1" fill="#d8edd4" fill-opacity="1"></use><g><use xlink:href="#axuLCHtcg" opacity="1" fill-opacity="0" stroke="#d0e8cc" stroke-width="2" stroke-opacity="1"></use></g></g><g><use xlink:href="#c25tUTPh32" opacity="1" fill="#a0c399" fill-opacity="1"></use><g><use xlink:href="#c25tUTPh32" opacity="1" fill-opacity="0" stroke="#92b58b" stroke-width="2" stroke-opacity="1"></use></g></g><g><use xlink:href="#cp5GLsOUg" opacity="1" fill="#a0c399" fill-opacity="1"></use><g><use xlink:href="#cp5GLsOUg" opacity="1" fill-opacity="0" stroke="#92b58b" stroke-width="2" stroke-opacity="1"></use></g></g><g><use xlink:href="#a3cRQ0RuH" opacity="1" fill="#92b58b" fill-opacity="1"></use><g><use xlink:href="#a3cRQ0RuH" opacity="1" fill-opacity="0" stroke="#92b58b" stroke-width="2" stroke-opacity="1"></use></g></g><g><use xlink:href="#b2nKNvg3wo" opacity="1" fill="#6ea38a" fill-opacity="1"></use><g><use xlink:href="#b2nKNvg3wo" opacity="1" fill-opacity="0" stroke="#699982" stroke-width="2" stroke-opacity="1"></use></g></g><g><use xlink:href="#ct7HQlzds" opacity="1" fill="#699982" fill-opacity="1"></use><g><use xlink:href="#ct7HQlzds" opacity="1" fill-opacity="0" stroke="#699982" stroke-width="2" stroke-opacity="1"></use></g></g><g><use xlink:href="#ds9jfkFHU" opacity="1" fill="#6ea38a" fill-opacity="1"></use><g><use xlink:href="#ds9jfkFHU" opacity="1" fill-opacity="0" stroke="#699982" stroke-width="2" stroke-opacity="1"></use></g></g><g><use xlink:href="#j1O3xVZ8PI" opacity="1" fill="#92b58b" fill-opacity="1"></use><g><use xlink:href="#j1O3xVZ8PI" opacity="1" fill-opacity="0" stroke="#92b58b" stroke-width="2" stroke-opacity="1"></use></g></g><g><use xlink:href="#b1g5RTnkg" opacity="1" fill="#fce8b2" fill-opacity="1"></use></g><g><use xlink:href="#aFyW56E9p" opacity="1" fill="#345e52" fill-opacity="1"></use><g><use xlink:href="#aFyW56E9p" opacity="1" fill-opacity="0" stroke="#2e5147" stroke-width="2" stroke-opacity="1"></use></g></g><g><use xlink:href="#bloy5AlPJ" opacity="1" fill="#345e52" fill-opacity="1"></use><g><use xlink:href="#bloy5AlPJ" opacity="1" fill-opacity="0" stroke="#2e5147" stroke-width="2" stroke-opacity="1"></use></g></g><g><use xlink:href="#cdb18ycR" opacity="1" fill="#2e5147" fill-opacity="1"></use><g><use xlink:href="#cdb18ycR" opacity="1" fill-opacity="0" stroke="#2e5147" stroke-width="2" stroke-opacity="1"></use></g></g><g><use xlink:href="#eXbXse6oi" opacity="1" fill="#2e5147" fill-opacity="1"></use><g><use xlink:href="#eXbXse6oi" opacity="1" fill-opacity="0" stroke="#2e5147" stroke-width="2" stroke-opacity="1"></use></g></g></g></g></svg>